<?xml version="1.0" encoding="UTF-8" standalone="no"?><svg xmlns="http://www.w3.org/2000/svg" xmlns:xlink="http://www.w3.org/1999/xlink" clip-rule="evenodd" stroke-miterlimit="10" viewBox="0 0 58 58"><desc>SVG generated by Keynote</desc><defs><linearGradient id="gradSh1.2" x1="0.0" y1="0.0" x2="100.0" y2="0.0" gradientUnits="userSpaceOnUse" gradientTransform="matrix(0.00, -0.56, -0.56, 0.00, 29.0, 57.0)"><stop offset="0.00000" stop-color="#80A7A7"></stop><stop offset="0.00073" stop-color="#80A6A7"></stop><stop offset="0.01466" stop-color="#7FA6A7"></stop><stop offset="0.01906" stop-color="#7FA6A6"></stop><stop offset="1.00000" stop-color="#588388"></stop></linearGradient></defs><g transform="matrix(1.00, 0.00, -0.00, -1.00, 0.0, 58.0)"><g><clipPath id="clip0x6000068ab400"><path d="M 48.2 48.1 C 58.7 37.6 58.7 20.4 48.2 9.9 C 37.6 -0.7 20.5 -0.7 9.9 9.9 C -0.6 20.4 -0.6 37.6 9.9 48.1 C 20.5 58.7 37.6 58.7 48.2 48.1 Z M 48.2 48.1 "></path></clipPath><g clip-path="url(#clip0x6000068ab400)"><path d="M 48.2 48.1 C 58.7 37.6 58.7 20.4 48.2 9.9 C 37.6 -0.7 20.5 -0.7 9.9 9.9 C -0.6 20.4 -0.6 37.6 9.9 48.1 C 20.5 58.7 37.6 58.7 48.2 48.1 Z M 48.2 48.1 " fill="url(#gradSh1.2)"></path></g></g></g></svg>