<?xml version="1.0" encoding="UTF-8" standalone="no"?><svg xmlns="http://www.w3.org/2000/svg" xmlns:xlink="http://www.w3.org/1999/xlink" clip-rule="evenodd" stroke-miterlimit="10" viewBox="0 0 51 52"><desc>SVG generated by Keynote</desc><defs><linearGradient id="gradSh1.6" x1="0.0" y1="0.0" x2="100.0" y2="0.0" gradientUnits="userSpaceOnUse" gradientTransform="matrix(0.00, -0.50, -0.50, 0.00, 25.2, 51.2)"><stop offset="0.00000" stop-color="#80A7A7"></stop><stop offset="0.00073" stop-color="#80A6A7"></stop><stop offset="0.01466" stop-color="#7FA6A7"></stop><stop offset="0.01906" stop-color="#7FA6A6"></stop><stop offset="1.00000" stop-color="#588388"></stop></linearGradient></defs><g transform="matrix(1.00, 0.00, -0.00, -1.00, 0.0, 52.0)"><g><clipPath id="clip0x6000074b90e0"><path d="M 42.4 43.1 C 51.9 33.7 51.9 18.3 42.4 8.9 C 32.9 -0.6 17.6 -0.6 8.1 8.9 C -1.4 18.3 -1.4 33.7 8.1 43.1 C 17.6 52.6 32.9 52.6 42.4 43.1 Z M 42.4 43.1 "></path></clipPath><g clip-path="url(#clip0x6000074b90e0)"><path d="M 42.4 43.1 C 51.9 33.7 51.9 18.3 42.4 8.9 C 32.9 -0.6 17.6 -0.6 8.1 8.9 C -1.4 18.3 -1.4 33.7 8.1 43.1 C 17.6 52.6 32.9 52.6 42.4 43.1 Z M 42.4 43.1 " fill="url(#gradSh1.6)"></path></g></g></g></svg>