<?xml version="1.0" encoding="UTF-8" standalone="no"?><svg xmlns="http://www.w3.org/2000/svg" xmlns:xlink="http://www.w3.org/1999/xlink" clip-rule="evenodd" stroke-miterlimit="10" viewBox="0 0 52 52"><desc>SVG generated by Keynote</desc><defs><linearGradient id="gradSh1.7" x1="0.0" y1="0.0" x2="100.0" y2="0.0" gradientUnits="userSpaceOnUse" gradientTransform="matrix(0.00, -0.51, -0.51, 0.00, 25.5, 51.5)"><stop offset="0.00000" stop-color="#80A7A7"></stop><stop offset="0.00073" stop-color="#80A6A7"></stop><stop offset="0.01466" stop-color="#7FA6A7"></stop><stop offset="0.01906" stop-color="#7FA6A6"></stop><stop offset="1.00000" stop-color="#588388"></stop></linearGradient></defs><g transform="matrix(1.00, 0.00, -0.00, -1.00, 0.0, 52.0)"><g><clipPath id="clip0x6000076b9440"><path d="M 42.8 43.3 C 52.4 33.8 52.4 18.2 42.8 8.7 C 33.3 -0.9 17.7 -0.9 8.2 8.7 C -1.4 18.2 -1.4 33.8 8.2 43.3 C 17.7 52.9 33.3 52.9 42.8 43.3 Z M 42.8 43.3 "></path></clipPath><g clip-path="url(#clip0x6000076b9440)"><path d="M 42.8 43.3 C 52.4 33.8 52.4 18.2 42.8 8.7 C 33.3 -0.9 17.7 -0.9 8.2 8.7 C -1.4 18.2 -1.4 33.8 8.2 43.3 C 17.7 52.9 33.3 52.9 42.8 43.3 Z M 42.8 43.3 " fill="url(#gradSh1.7)"></path></g></g></g></svg>