<?xml version="1.0" encoding="UTF-8" standalone="no"?><svg xmlns="http://www.w3.org/2000/svg" xmlns:xlink="http://www.w3.org/1999/xlink" clip-rule="evenodd" stroke-miterlimit="10" viewBox="0 0 59 60"><desc>SVG generated by Keynote</desc><defs><linearGradient id="gradSh1.0" x1="0.0" y1="0.0" x2="100.0" y2="0.0" gradientUnits="userSpaceOnUse" gradientTransform="matrix(0.00, -0.58, -0.58, 0.00, 29.0, 59.0)"><stop offset="0.00000" stop-color="#80A7A7"></stop><stop offset="0.00073" stop-color="#80A6A7"></stop><stop offset="0.01466" stop-color="#7FA6A7"></stop><stop offset="0.01906" stop-color="#7FA6A6"></stop><stop offset="1.00000" stop-color="#588388"></stop></linearGradient></defs><g transform="matrix(1.00, 0.00, -0.00, -1.00, 0.0, 60.0)"><g><clipPath id="clip0x608002ab7e80"><path d="M 48.8 49.8 C 59.8 38.9 59.8 21.1 48.8 10.2 C 37.9 -0.8 20.2 -0.8 9.2 10.2 C -1.7 21.1 -1.7 38.9 9.2 49.8 C 20.2 60.8 37.9 60.8 48.8 49.8 Z M 48.8 49.8 "></path></clipPath><g clip-path="url(#clip0x608002ab7e80)"><path d="M 48.8 49.8 C 59.8 38.9 59.8 21.1 48.8 10.2 C 37.9 -0.8 20.2 -0.8 9.2 10.2 C -1.7 21.1 -1.7 38.9 9.2 49.8 C 20.2 60.8 37.9 60.8 48.8 49.8 Z M 48.8 49.8 " fill="url(#gradSh1.0)"></path></g></g></g></svg>